<svg width="76" height="76" viewBox="0 0 76 76" fill="none" xmlns="http://www.w3.org/2000/svg">
<circle cx="38" cy="38" r="38" fill="#EEF7BB"/>
<path d="M28.1189 54C27.6008 53.999 27.0919 53.8591 26.6422 53.5939C25.6295 53.0026 25 51.8548 25 50.6087V25.3914C25 24.1419 25.6295 22.9975 26.6422 22.4062C27.1026 22.1336 27.6256 21.9934 28.1566 22.0002C28.6876 22.0071 29.2071 22.1609 29.6607 22.4454L50.5759 35.3462C51.0118 35.6278 51.3712 36.0189 51.6203 36.4828C51.8693 36.9467 52 37.4682 52 37.9983C52 38.5285 51.8693 39.05 51.6203 39.5139C51.3712 39.9778 51.0118 40.3689 50.5759 40.6505L29.6573 53.5548C29.1931 53.844 28.6614 53.9979 28.1189 54Z" fill="#90B524"/>
</svg>
