<svg width="48" height="49" viewBox="0 0 48 49" fill="none" xmlns="http://www.w3.org/2000/svg">
<path d="M35.75 12.9351C34.2218 11.3919 32.4017 10.1683 30.3959 9.33565C28.39 8.50298 26.2385 8.07786 24.0667 8.08505C14.9667 8.08505 7.55002 15.5017 7.55002 24.6017C7.55002 27.5184 8.31669 30.3517 9.75002 32.8517L7.41669 41.4184L16.1667 39.1184C18.5834 40.4351 21.3 41.1351 24.0667 41.1351C33.1667 41.1351 40.5834 33.7184 40.5834 24.6184C40.5834 20.2017 38.8667 16.0517 35.75 12.9351ZM24.0667 38.3351C21.6 38.3351 19.1834 37.6684 17.0667 36.4184L16.5667 36.1184L11.3667 37.4851L12.75 32.4184L12.4167 31.9017C11.0459 29.7135 10.3182 27.1838 10.3167 24.6017C10.3167 17.0351 16.4834 10.8684 24.05 10.8684C27.7167 10.8684 31.1667 12.3017 33.75 14.9017C35.0294 16.1748 36.0432 17.6893 36.7327 19.3573C37.4222 21.0252 37.7737 22.8135 37.7667 24.6184C37.8 32.1851 31.6334 38.3351 24.0667 38.3351ZM31.6 28.0684C31.1834 27.8684 29.15 26.8684 28.7834 26.7184C28.4 26.5851 28.1334 26.5184 27.85 26.9184C27.5667 27.3351 26.7834 28.2684 26.55 28.5351C26.3167 28.8184 26.0667 28.8517 25.65 28.6351C25.2334 28.4351 23.9 27.9851 22.3334 26.5851C21.1 25.4851 20.2834 24.1351 20.0334 23.7184C19.8 23.3017 20 23.0851 20.2167 22.8684C20.4 22.6851 20.6334 22.3851 20.8334 22.1517C21.0334 21.9184 21.1167 21.7351 21.25 21.4684C21.3834 21.1851 21.3167 20.9517 21.2167 20.7517C21.1167 20.5517 20.2834 18.5184 19.95 17.6851C19.6167 16.8851 19.2667 16.9851 19.0167 16.9684H18.2167C17.9334 16.9684 17.5 17.0684 17.1167 17.4851C16.75 17.9017 15.6834 18.9017 15.6834 20.9351C15.6834 22.9684 17.1667 24.9351 17.3667 25.2017C17.5667 25.4851 20.2834 29.6517 24.4167 31.4351C25.4 31.8684 26.1667 32.1184 26.7667 32.3017C27.75 32.6184 28.65 32.5684 29.3667 32.4684C30.1667 32.3517 31.8167 31.4684 32.15 30.5017C32.5 29.5351 32.5 28.7184 32.3834 28.5351C32.2667 28.3517 32.0167 28.2684 31.6 28.0684Z" fill="#90B524"/>
</svg>
