<svg width="48" height="49" viewBox="0 0 48 49" fill="none" xmlns="http://www.w3.org/2000/svg">
<path d="M17 8.08545H31C36.3333 8.08545 40.6666 12.4188 40.6666 17.7521V31.7521C40.6666 34.3159 39.6482 36.7746 37.8353 38.5875C36.0225 40.4003 33.5637 41.4188 31 41.4188H17C11.6666 41.4188 7.33331 37.0854 7.33331 31.7521V17.7521C7.33331 15.1884 8.35176 12.7296 10.1646 10.9168C11.9775 9.1039 14.4362 8.08545 17 8.08545ZM16.6666 11.4188C15.0753 11.4188 13.5492 12.0509 12.424 13.1761C11.2988 14.3014 10.6666 15.8275 10.6666 17.4188V32.0854C10.6666 35.4021 13.35 38.0854 16.6666 38.0854H31.3333C32.9246 38.0854 34.4507 37.4533 35.576 36.3281C36.7012 35.2029 37.3333 33.6767 37.3333 32.0854V17.4188C37.3333 14.1021 34.65 11.4188 31.3333 11.4188H16.6666ZM32.75 13.9188C33.3025 13.9188 33.8324 14.1383 34.2231 14.529C34.6138 14.9197 34.8333 15.4496 34.8333 16.0021C34.8333 16.5547 34.6138 17.0846 34.2231 17.4753C33.8324 17.866 33.3025 18.0854 32.75 18.0854C32.1974 18.0854 31.6675 17.866 31.2768 17.4753C30.8861 17.0846 30.6666 16.5547 30.6666 16.0021C30.6666 15.4496 30.8861 14.9197 31.2768 14.529C31.6675 14.1383 32.1974 13.9188 32.75 13.9188ZM24 16.4188C26.2101 16.4188 28.3297 17.2968 29.8925 18.8596C31.4553 20.4224 32.3333 22.542 32.3333 24.7521C32.3333 26.9623 31.4553 29.0819 29.8925 30.6447C28.3297 32.2075 26.2101 33.0854 24 33.0854C21.7898 33.0854 19.6702 32.2075 18.1074 30.6447C16.5446 29.0819 15.6666 26.9623 15.6666 24.7521C15.6666 22.542 16.5446 20.4224 18.1074 18.8596C19.6702 17.2968 21.7898 16.4188 24 16.4188ZM24 19.7521C22.6739 19.7521 21.4021 20.2789 20.4644 21.2166C19.5268 22.1543 19 23.426 19 24.7521C19 26.0782 19.5268 27.35 20.4644 28.2876C21.4021 29.2253 22.6739 29.7521 24 29.7521C25.3261 29.7521 26.5978 29.2253 27.5355 28.2876C28.4732 27.35 29 26.0782 29 24.7521C29 23.426 28.4732 22.1543 27.5355 21.2166C26.5978 20.2789 25.3261 19.7521 24 19.7521Z" fill="#90B524"/>
</svg>
